<?xml version="1.0" standalone="no"?>
<!DOCTYPE svg PUBLIC "-//W3C//DTD SVG 20010904//EN"
 "http://www.w3.org/TR/2001/REC-SVG-20010904/DTD/svg10.dtd">
<svg version="1.0" xmlns="http://www.w3.org/2000/svg"
 width="512.000000pt" height="512.000000pt" viewBox="0 0 512.000000 512.000000"
 preserveAspectRatio="xMidYMid meet">
<metadata>
Created by potrace 1.14, written by Peter Selinger 2001-2017
</metadata>
<g transform="translate(0.000000,512.000000) scale(0.100000,-0.100000)"
fill="#000000" stroke="none">
<path d="M2900 5068 c-141 -14 -213 -73 -287 -236 -21 -46 -26 -73 -27 -143
-1 -47 -6 -92 -12 -100 -6 -8 -19 -30 -29 -49 -10 -19 -29 -48 -43 -65 -21
-26 -24 -36 -18 -82 7 -63 -8 -101 -43 -110 -37 -8 -131 -53 -160 -74 -13 -11
-27 -16 -31 -14 -5 3 -11 1 -15 -5 -13 -21 -35 -10 -35 18 0 50 -47 128 -97
161 l-46 31 -699 0 c-755 0 -729 2 -796 -55 -43 -36 -61 -73 -67 -137 -7 -72
-15 -107 -32 -143 -19 -38 -63 -85 -79 -85 -40 0 -104 -89 -104 -145 0 -14 -4
-25 -10 -25 -5 0 -10 -6 -10 -14 0 -9 -18 -15 -58 -19 -109 -9 -154 -52 -158
-147 -1 -30 4 -134 12 -230 50 -644 94 -1772 94 -2453 0 -153 4 -216 14 -241
17 -42 84 -98 108 -90 11 3 20 -1 24 -10 3 -9 10 -16 16 -16 5 0 7 4 4 9 -4 5
5 8 19 6 14 -1 25 3 25 9 0 6 5 4 10 -4 11 -18 31 -20 43 -5 5 6 7 4 4 -5 -2
-8 -10 -14 -16 -13 -6 2 -11 -2 -11 -8 0 -7 7 -8 18 -4 28 11 37 11 35 0 -1
-6 7 -11 17 -11 10 0 17 4 14 7 -2 4 0 10 6 14 9 6 14 -7 11 -27 0 -5 4 -8 9
-8 13 0 13 16 -1 43 -10 22 -10 22 8 -1 17 -21 70 -41 58 -22 -3 5 0 12 6 16
7 4 9 3 6 -2 -3 -6 -2 -16 4 -24 7 -12 9 -9 9 10 0 19 2 22 9 10 6 -8 8 -17 6
-20 -2 -3 7 -6 20 -6 13 0 21 4 19 8 -3 5 -10 5 -16 2 -7 -4 -8 -2 -4 4 4 7 2
12 -5 12 -7 0 -10 2 -7 5 3 3 18 -1 34 -10 26 -14 30 -13 43 3 13 16 13 16 8
0 -7 -21 -3 -22 25 -7 12 6 18 7 14 1 -3 -5 0 -14 7 -20 17 -14 42 1 32 19 -6
9 -10 8 -16 -7 -6 -16 -8 -16 -8 -2 -2 37 27 30 45 -11 9 -21 11 -22 17 -7 5
12 3 15 -6 10 -9 -6 -9 -5 0 8 7 8 9 19 5 23 -4 5 -1 5 6 1 7 -4 10 -12 7 -17
-4 -5 -1 -9 5 -9 6 0 8 -5 4 -12 -4 -7 -3 -8 4 -4 7 4 12 1 12 -6 0 -10 2 -10
9 0 11 17 21 17 33 0 8 -10 9 -10 5 2 -2 8 -11 14 -18 12 -8 -2 -10 0 -6 4 13
14 37 13 37 -1 0 -9 8 -11 22 -7 13 3 19 1 15 -6 -10 -15 21 -8 36 8 10 12 9
12 -4 2 -13 -10 -19 -10 -27 1 -8 10 -5 12 16 11 15 -1 28 -3 30 -4 1 -2 7 -3
12 -4 6 0 14 -7 19 -14 7 -11 9 -10 14 3 4 9 3 13 -3 10 -6 -3 -10 -1 -10 4 0
14 13 14 27 0 15 -15 47 -3 37 13 -4 7 -3 9 1 5 12 -10 16 -39 5 -32 -5 3 -11
2 -14 -3 -3 -5 17 -7 45 -5 37 2 48 0 44 -10 -4 -6 6 2 21 18 15 17 25 22 21
13 -4 -12 0 -21 13 -28 24 -13 40 -12 18 1 -10 5 -18 18 -18 27 1 15 2 15 11
-1 10 -18 11 -18 24 0 13 17 14 16 9 -7 -5 -20 -3 -22 5 -10 9 13 11 12 11 -5
0 -16 2 -17 9 -6 5 8 7 21 4 30 -4 14 -3 14 5 1 6 -8 9 -17 7 -20 -2 -3 14 -5
35 -6 24 0 37 4 33 10 -4 6 -3 8 2 4 4 -4 16 -3 26 3 14 7 17 6 13 -5 -7 -19
15 -31 29 -17 9 9 7 10 -8 5 -11 -4 -17 -4 -14 0 4 4 16 9 29 11 16 3 20 0 16
-11 -3 -8 -2 -13 3 -9 5 3 11 2 14 -2 2 -5 2 -3 1 4 -2 6 4 14 12 17 24 9 31
7 14 -4 -17 -11 -1 -13 24 -4 9 3 13 11 9 18 -3 6 0 5 8 -2 9 -8 10 -15 4 -20
-6 -4 -11 -14 -13 -22 -2 -11 2 -10 12 4 9 11 20 15 28 10 9 -5 8 -2 -2 11
-14 17 -14 18 10 5 14 -8 29 -13 34 -12 5 2 13 -3 17 -10 7 -10 9 -10 9 0 0 9
5 10 19 2 14 -7 22 -7 26 1 4 6 14 8 22 5 8 -3 11 -1 8 4 -3 6 -20 8 -38 5
-17 -4 -29 -3 -26 0 4 3 16 7 28 10 25 5 85 -18 74 -29 -4 -4 0 -4 10 0 9 3
17 11 18 18 0 6 4 2 9 -9 6 -15 9 -16 9 -4 1 9 11 24 23 35 18 15 20 16 9 2
-11 -15 -11 -19 3 -24 9 -3 24 0 33 7 12 10 15 10 9 2 -4 -8 -2 -13 4 -13 6 0
9 -4 6 -8 -3 -5 1 -9 9 -9 8 0 17 7 19 14 3 8 2 11 -3 8 -5 -3 -12 -2 -15 3
-2 4 4 9 16 9 12 1 18 -3 15 -10 -3 -7 1 -21 9 -32 8 -10 14 -14 14 -9 0 6 -6
16 -13 23 -10 10 -8 12 8 9 11 -1 25 -9 31 -17 9 -11 11 -11 11 3 0 15 -10 20
-29 17 -5 0 -8 3 -8 8 0 6 9 9 20 8 11 -1 20 -5 20 -10 0 -5 7 -4 15 3 11 9
19 10 26 3 8 -8 6 -11 -6 -10 -10 1 -20 -5 -23 -13 -4 -12 -2 -13 9 -4 20 15
45 11 41 -6 -3 -12 -1 -12 9 -3 9 9 9 16 1 26 -9 11 -8 14 3 14 8 0 12 -4 9
-9 -3 -5 7 -7 23 -5 15 2 34 0 41 -6 8 -6 12 -6 12 0 0 6 18 10 40 9 25 -1 40
-6 40 -13 0 -7 5 -13 11 -13 6 0 8 9 4 23 -3 12 -3 17 2 11 4 -6 16 -10 25 -8
10 1 21 -2 24 -7 3 -6 12 -2 20 8 14 17 15 17 9 -4 -6 -22 -6 -22 27 -5 37 18
58 23 57 14 -4 -26 1 -32 15 -20 8 7 12 17 9 21 -3 5 4 3 16 -4 11 -8 22 -20
25 -29 3 -12 4 -11 5 3 0 9 6 17 12 17 5 0 7 5 3 12 -4 7 -3 8 4 4 7 -4 12
-13 12 -20 0 -13 43 -16 56 -3 4 3 -3 5 -14 2 -12 -2 -24 0 -27 5 -3 5 4 7 15
5 11 -2 20 1 20 7 0 7 7 3 16 -8 8 -10 12 -13 8 -5 -5 9 -3 12 4 7 7 -4 12 -1
12 6 0 9 3 9 10 -2 8 -12 12 -13 19 -2 7 11 9 10 14 -3 4 -9 3 -13 -3 -10 -6
3 -10 1 -10 -4 0 -12 42 -10 51 2 3 4 15 9 27 12 15 3 19 0 15 -11 -4 -12 3
-11 30 5 33 18 37 19 49 3 9 -11 10 -14 1 -8 -7 4 -13 5 -13 2 0 -3 15 -13 33
-21 80 -38 121 -74 111 -98 -2 -7 -6 -44 -8 -83 -2 -39 -6 -76 -10 -83 -11
-18 -14 -151 -3 -151 5 0 7 -9 4 -20 -6 -22 15 -49 39 -51 8 -1 20 -2 27 -3 6
-1 29 4 50 11 20 7 38 12 40 12 19 -2 142 57 147 71 9 29 9 125 0 150 -5 14
-11 50 -14 80 -3 30 -7 64 -10 76 -2 12 3 25 14 32 16 9 25 5 58 -28 39 -39
40 -39 47 -18 4 13 8 25 10 28 1 3 5 14 9 25 4 11 13 34 19 50 7 17 11 34 9
38 -1 5 2 6 7 3 5 -4 8 -15 6 -26 -2 -12 0 -18 6 -15 5 4 7 11 4 16 -4 5 -1 9
5 9 6 0 8 4 5 10 -3 5 -1 10 5 10 7 0 10 -7 7 -15 -4 -8 -2 -17 4 -20 5 -4 6
-11 3 -17 -4 -7 -2 -8 5 -4 9 6 9 11 0 22 -7 9 -8 14 -1 14 6 0 14 -5 17 -10
4 -7 13 -7 26 0 14 8 19 7 19 -2 0 -10 3 -9 9 1 5 8 17 16 25 17 9 1 14 -1 11
-6 -3 -4 3 -14 13 -21 15 -12 16 -12 5 2 -11 13 -10 19 5 33 16 13 19 14 19 1
0 -8 -5 -11 -10 -8 -6 3 -7 1 -4 -5 4 -5 17 -8 29 -4 16 4 19 2 13 -9 -7 -12
-6 -12 9 0 15 13 19 13 28 0 8 -11 9 -10 4 4 -3 10 -6 21 -6 24 0 3 -8 -1 -17
-8 -16 -13 -17 -12 -4 3 7 10 18 15 25 11 17 -11 35 -12 42 -2 3 5 10 9 17 9
6 0 2 -6 -8 -14 -11 -8 -23 -12 -27 -10 -4 3 -5 -2 -1 -11 4 -13 8 -14 14 -4
5 9 11 10 21 2 10 -8 18 -8 32 3 21 15 40 9 29 -9 -4 -7 0 -6 10 2 18 15 23
26 7 16 -5 -3 -10 -2 -10 3 0 6 7 13 16 16 8 3 13 2 10 -2 -2 -4 2 -15 9 -25
11 -16 13 -16 19 -2 3 9 11 13 17 9 8 -5 9 -3 4 6 -5 8 -3 11 6 8 8 -3 13 -11
11 -17 -1 -7 2 -10 8 -6 6 3 8 10 6 14 -3 4 0 13 6 21 8 12 9 12 4 -2 -6 -20
4 -24 21 -7 7 7 14 6 24 -3 20 -18 49 -24 32 -7 -7 7 -13 17 -13 23 0 5 8 0
18 -10 9 -10 27 -20 39 -20 18 -1 21 2 13 16 -6 12 -5 17 5 17 8 0 13 -5 12
-10 -1 -5 4 -12 12 -15 8 -2 11 0 7 6 -3 6 -1 14 5 18 8 4 9 3 5 -4 -4 -7 -2
-12 4 -12 6 0 9 -4 6 -8 -2 -4 6 -8 19 -8 13 0 21 4 19 8 -3 5 -9 6 -14 3 -14
-9 -23 16 -11 28 9 9 11 8 6 -3 -5 -15 2 -18 53 -22 6 -1 12 -4 12 -8 0 -13
39 -8 44 6 4 10 2 12 -6 8 -7 -4 -8 -3 -4 5 6 9 11 9 21 1 8 -7 20 -9 27 -5 7
4 4 -1 -6 -9 -11 -9 -16 -16 -10 -16 13 1 49 29 47 38 -1 4 1 9 4 12 2 3 3 -1
1 -9 -2 -7 3 -16 11 -19 8 -2 11 -1 8 4 -3 5 11 9 31 9 22 0 37 -5 37 -12 0
-6 3 -15 7 -19 4 -3 6 3 3 15 -2 11 0 21 6 21 5 0 9 -4 9 -8 0 -4 10 -8 23 -9
21 -2 21 -1 3 13 -23 16 -14 19 15 3 11 -6 17 -15 12 -22 -4 -7 0 -7 10 2 19
15 23 26 5 15 -6 -4 -8 -3 -5 2 3 6 22 9 42 9 26 -1 34 2 31 12 -8 20 2 16 14
-6 9 -17 7 -19 -11 -16 -12 3 -29 0 -38 -5 -12 -7 -8 -8 14 -6 17 2 35 -1 42
-6 8 -6 11 -2 9 15 -3 25 14 31 31 12 4 -4 3 -5 -3 -2 -6 3 -11 0 -11 -8 0
-11 4 -12 14 -4 10 9 13 8 13 -1 0 -8 3 -11 6 -8 3 4 0 17 -7 30 -10 19 -10
21 2 12 8 -5 24 -9 37 -8 12 0 22 -2 22 -7 0 -5 6 -6 14 -3 8 3 14 11 12 17
-1 7 -1 9 1 5 6 -10 37 -10 47 -1 3 4 13 8 22 9 12 2 13 -1 3 -12 -6 -7 -14
-12 -18 -10 -3 2 -19 -2 -36 -10 -23 -11 -25 -12 -5 -7 14 4 35 7 47 7 12 0
19 4 17 8 -3 4 5 8 18 8 19 0 20 2 8 11 -13 9 -13 10 1 6 9 -3 22 0 28 6 8 8
14 8 24 -2 10 -10 9 -11 -3 -6 -9 3 -20 -3 -28 -15 -7 -11 -8 -20 -3 -20 5 0
11 6 14 13 2 6 17 12 33 12 23 0 28 4 26 19 -2 10 6 27 17 37 12 11 28 34 37
51 18 36 19 47 34 723 10 414 24 850 34 1035 3 41 7 136 11 210 3 74 8 158 10
185 2 28 9 127 15 220 6 94 12 184 15 200 2 17 7 113 11 215 6 183 6 185 -18
220 -33 49 -83 71 -163 71 l-65 0 -1 37 c0 58 -21 103 -62 136 l-39 31 -494 3
c-460 3 -494 4 -492 20 2 9 -2 16 -7 15 -6 -1 -11 6 -12 15 -1 9 -5 33 -10 52
-10 39 4 130 20 130 14 0 78 -39 107 -66 14 -13 42 -30 62 -38 40 -17 148 -22
148 -7 0 5 -18 9 -41 9 -49 1 -56 6 -39 27 11 13 10 14 -4 9 -9 -4 -37 1 -61
10 -33 13 -51 29 -75 67 -18 27 -36 49 -41 49 -5 0 -9 6 -9 14 0 8 -12 17 -26
20 -21 6 -25 11 -20 29 4 12 9 31 11 41 11 48 20 43 79 -40 31 -44 118 -69
156 -44 10 6 4 8 -21 4 -55 -9 -94 16 -120 76 -12 28 -35 62 -51 76 -20 16
-32 37 -35 59 -4 32 -2 35 21 35 15 0 30 -8 36 -20 6 -11 20 -20 30 -20 11 0
20 -4 20 -9 0 -5 15 -14 33 -20 26 -9 29 -8 17 2 -32 25 -62 78 -57 98 3 12
-2 43 -10 70 -17 53 -15 61 20 65 12 1 29 3 37 4 8 1 4 5 -10 9 -14 4 -40 4
-58 0 -22 -5 -46 -2 -70 8 -21 9 -50 13 -69 10 -30 -5 -33 -3 -33 18 0 28 19
43 31 24 6 -11 9 -11 13 1 9 28 13 80 6 80 -4 0 -10 13 -13 29 -11 53 -121 97
-169 67 -9 -5 -14 -14 -12 -18 3 -4 -1 -8 -9 -8 -7 0 -24 -18 -36 -40 -39 -70
-64 -90 -108 -90 -42 0 -57 12 -83 64 -19 37 -76 92 -117 111 -18 9 -35 20
-38 25 -8 13 -85 53 -85 44 0 -4 -6 -2 -12 3 -23 18 -42 19 -128 11z m710
-213 c30 -19 -17 -114 -86 -175 -47 -41 -91 -38 -49 4 8 8 15 19 15 25 0 6 5
11 12 11 6 0 9 3 5 6 -8 9 22 102 40 124 15 17 40 19 63 5z m16 -388 c14 -14
-20 -37 -55 -37 -43 0 -66 16 -48 34 11 13 91 15 103 3z m-276 -133 c0 -14 -3
-14 -15 -4 -8 7 -15 14 -15 16 0 2 7 4 15 4 8 0 15 -7 15 -16z m297 -227 c10
-30 4 -56 -16 -79 -14 -15 -20 -16 -29 -6 -21 26 -19 83 3 74 12 -4 14 0 9 19
-5 20 -3 24 10 19 8 -3 19 -16 23 -27z m-189 -13 c20 -6 33 -34 15 -34 -25 1
-53 14 -53 26 0 16 5 16 38 8z m1426 -3479 c3 -8 1 -15 -4 -15 -6 0 -10 7 -10
15 0 8 2 15 4 15 2 0 6 -7 10 -15z m-4333 -18 c-6 -8 -7 -18 -3 -22 4 -5 1 -5
-6 -1 -10 6 -10 11 -1 22 6 8 14 14 16 14 3 0 0 -6 -6 -13z m-86 -7 c3 -5 1
-10 -4 -10 -6 0 -11 5 -11 10 0 6 2 10 4 10 3 0 8 -4 11 -10z m3780 -18 c-3
-3 -11 0 -18 7 -9 10 -8 11 6 5 10 -3 15 -9 12 -12z m-3382 -7 c-3 -9 -8 -14
-10 -11 -3 3 -2 9 2 15 9 16 15 13 8 -4z m2905 -10 c-3 -3 -9 2 -12 12 -6 14
-5 15 5 6 7 -7 10 -15 7 -18z m-2598 4 c0 -4 -6 -9 -13 -12 -8 -3 -14 0 -14 7
0 7 6 13 14 13 7 0 13 -4 13 -8z m21 -12 c-10 -9 -11 -8 -5 6 3 10 9 15 12 12
3 -3 0 -11 -7 -18z m2820 6 c13 -16 12 -17 -3 -4 -17 13 -22 21 -14 21 2 0 10
-8 17 -17z m183 0 c4 -10 1 -11 -13 -4 -10 6 -21 8 -24 5 -3 -3 -7 -1 -10 3
-3 5 5 9 18 9 14 0 27 -6 29 -13z m-2534 -13 c0 -5 -2 -10 -4 -10 -3 0 -8 5
-11 10 -3 6 -1 10 4 10 6 0 11 -4 11 -10z m130 0 c0 -5 -2 -10 -4 -10 -3 0 -8
5 -11 10 -3 6 -1 10 4 10 6 0 11 -4 11 -10z m920 5 c0 -7 -30 -13 -34 -7 -3 4
4 9 15 9 10 1 19 0 19 -2z m800 -8 c0 -6 -3 -7 -6 -4 -4 3 -15 2 -24 -3 -12
-7 -21 -6 -28 3 -8 9 -2 12 24 13 19 0 34 -4 34 -9z m230 -2 c-7 -8 -17 -12
-22 -9 -6 4 -5 10 3 15 22 14 33 10 19 -6z m100 11 c0 -3 -4 -8 -10 -11 -5 -3
-10 -1 -10 4 0 6 5 11 10 11 6 0 10 -2 10 -4z"/>
<path d="M4985 640 c-3 -6 1 -7 9 -4 18 7 21 14 7 14 -6 0 -13 -4 -16 -10z"/>
<path d="M193 613 c0 -9 4 -10 14 -2 7 6 13 12 13 14 0 1 -6 2 -13 2 -8 0 -14
-6 -14 -14z"/>
<path d="M4908 618 c5 -5 16 -8 23 -6 8 3 3 7 -10 11 -17 4 -21 3 -13 -5z"/>
<path d="M230 611 c0 -6 4 -13 10 -16 6 -3 7 1 4 9 -7 18 -14 21 -14 7z"/>
<path d="M333 587 c-3 -7 -3 -9 2 -5 4 4 14 3 21 -3 8 -7 14 -7 19 1 3 5 5 10
3 11 -27 6 -39 5 -45 -4z"/>
<path d="M4630 576 c0 -2 7 -7 16 -10 8 -3 12 -2 9 4 -6 10 -25 14 -25 6z"/>
<path d="M715 550 c3 -5 8 -10 11 -10 2 0 4 5 4 10 0 6 -5 10 -11 10 -5 0 -7
-4 -4 -10z"/>
<path d="M4341 551 c-8 -5 -9 -11 -3 -15 5 -3 12 1 16 9 6 17 6 18 -13 6z"/>
<path d="M660 546 c0 -2 11 -6 25 -8 13 -3 22 -1 19 3 -5 9 -44 13 -44 5z"/>
<path d="M990 538 c0 -4 4 -8 9 -8 6 0 12 4 15 8 3 5 -1 9 -9 9 -8 0 -15 -4
-15 -9z"/>
<path d="M1050 540 c0 -5 5 -10 11 -10 5 0 7 5 4 10 -3 6 -8 10 -11 10 -2 0
-4 -4 -4 -10z"/>
<path d="M3923 535 c0 -8 4 -12 9 -9 5 3 6 10 3 15 -9 13 -12 11 -12 -6z"/>
<path d="M1400 531 c0 -6 4 -13 10 -16 6 -3 7 1 4 9 -7 18 -14 21 -14 7z"/>
<path d="M1830 524 c0 -8 5 -12 10 -9 6 4 8 11 5 16 -9 14 -15 11 -15 -7z"/>
<path d="M2395 529 c-4 -5 -4 -13 -1 -16 3 -4 6 0 6 8 0 11 2 11 10 -1 6 -9
10 -10 10 -3 0 17 -17 25 -25 12z"/>
<path d="M2786 525 c-11 -8 -15 -15 -9 -15 6 0 16 7 23 15 16 19 11 19 -14 0z"/>
<path d="M2126 518 c3 -5 10 -6 15 -3 13 9 11 12 -6 12 -8 0 -12 -4 -9 -9z"/>
<path d="M2180 520 c0 -5 9 -8 20 -7 21 1 18 10 -5 13 -8 1 -15 -2 -15 -6z"/>
<path d="M2286 518 c3 -5 10 -6 15 -3 13 9 11 12 -6 12 -8 0 -12 -4 -9 -9z"/>
<path d="M2456 522 c-3 -5 1 -9 9 -9 8 0 12 4 9 9 -3 4 -7 8 -9 8 -2 0 -6 -4
-9 -8z"/>
<path d="M2620 520 c0 -5 5 -10 11 -10 5 0 7 5 4 10 -3 6 -8 10 -11 10 -2 0
-4 -4 -4 -10z"/>
<path d="M2716 513 c-6 -14 -5 -15 5 -6 7 7 10 15 7 18 -3 3 -9 -2 -12 -12z"/>
</g>
</svg>
